<?xml version="1.0" encoding="UTF-8"?>
<svg id="Layer_1" data-name="Layer 1" xmlns="http://www.w3.org/2000/svg" viewBox="0 0 212 212">
  <defs>
    <style>
      .cls-1 {
        font-family: Nunito-ExtraBold, Nunito;
        font-size: 54px;
        font-weight: 700;
      }

      .cls-2 {
        fill: #fa0;
      }
    </style>
  </defs>
  <g>
    <path class="cls-2" d="m106,190.24c-4.57,0-8.98-1.65-12.44-4.64l-64.59-55.94c-4.17-3.61-6.56-8.85-6.56-14.36v-18.47c0-5.51,2.38-10.73,6.54-14.34L93.55,26.41c3.46-3,7.88-4.65,12.45-4.65s9,1.65,12.45,4.65l64.59,56.08c4.16,3.61,6.54,8.84,6.54,14.34v18.47c0,5.52-2.39,10.75-6.56,14.36l-64.59,55.94c-3.45,2.99-7.87,4.64-12.44,4.64Z"/>
    <path d="m106,29.76c2.57,0,5.14.9,7.21,2.69l64.59,56.08c2.41,2.09,3.79,5.12,3.79,8.3v18.47c0,3.19-1.39,6.22-3.8,8.31l-64.59,55.94c-2.07,1.79-4.63,2.68-7.2,2.68s-5.13-.89-7.2-2.68l-64.59-55.94c-2.41-2.09-3.8-5.12-3.8-8.31v-18.47c0-3.19,1.38-6.21,3.79-8.3l64.59-56.08c2.07-1.8,4.64-2.69,7.21-2.69m0-16c-6.5,0-12.79,2.35-17.7,6.61L23.71,76.45c-5.91,5.13-9.3,12.56-9.3,20.38v18.47c0,7.84,3.4,15.28,9.32,20.41l64.59,55.94c4.91,4.25,11.18,6.59,17.67,6.59s12.77-2.34,17.67-6.59l64.59-55.94c5.92-5.13,9.32-12.57,9.32-20.41v-18.47c0-7.82-3.39-15.25-9.3-20.38L123.7,20.37c-4.91-4.26-11.2-6.61-17.7-6.61h0Z"/>
  </g>
  <text class="cls-1" transform="translate(52.7 125.28)"><tspan x="0" y="0">D10</tspan></text>
</svg>