<?xml version="1.0" encoding="UTF-8"?>
<svg id="Layer_1" data-name="Layer 1" xmlns="http://www.w3.org/2000/svg" viewBox="0 0 212 212">
  <defs>
    <style>
      .cls-1 {
        font-family: Nunito-ExtraBold, Nunito;
        font-size: 54px;
        font-weight: 700;
      }

      .cls-2 {
        fill: #ff0080;
      }
    </style>
  </defs>
  <g>
    <path class="cls-2" d="m106,203.78c-6.69,0-13.19-2.25-18.29-6.34l-59.5-47.64c-6.36-5.09-10.01-12.54-10.01-20.43v-46.6c0-7.88,3.64-15.32,9.98-20.41L87.68,14.58c5.11-4.1,11.61-6.36,18.32-6.36s13.21,2.26,18.32,6.36l59.5,47.77c6.34,5.09,9.98,12.53,9.98,20.41v46.6c0,7.89-3.65,15.34-10.01,20.43l-59.5,47.65c-5.1,4.08-11.6,6.34-18.29,6.34Z"/>
    <path d="m106,16.22c4.75,0,9.49,1.53,13.31,4.6l59.5,47.77c4.44,3.56,6.99,8.73,6.99,14.17v46.6c0,5.45-2.56,10.62-7.01,14.19l-59.5,47.64c-3.81,3.05-8.55,4.58-13.29,4.58s-9.48-1.53-13.29-4.58l-59.5-47.64c-4.45-3.57-7.01-8.74-7.01-14.19v-46.6c0-5.44,2.55-10.61,6.99-14.17l59.5-47.77c3.82-3.06,8.56-4.6,13.31-4.6m0-16c-8.52,0-16.8,2.88-23.32,8.12L23.17,56.11c-8.25,6.62-12.97,16.33-12.97,26.65v46.6c0,10.33,4.74,20.06,13.01,26.68l59.5,47.64c6.52,5.22,14.79,8.09,23.29,8.09s16.77-2.87,23.29-8.09l59.5-47.64c8.27-6.62,13.01-16.34,13.01-26.68v-46.6c0-10.32-4.73-20.03-12.97-26.65l-59.5-47.77C122.8,3.11,114.52.22,106,.22h0Z"/>
  </g>
  <text class="cls-1" transform="translate(52.7 125.28)"><tspan x="0" y="0">D20</tspan></text>
</svg>