<?xml version="1.0" encoding="UTF-8"?>
<svg id="Layer_1" data-name="Layer 1" xmlns="http://www.w3.org/2000/svg" viewBox="0 0 212 212">
  <defs>
    <style>
      .cls-1 {
        fill: #00aeff;
      }

      .cls-2 {
        font-family: Nunito-ExtraBold, Nunito;
        font-size: 54px;
        font-weight: 700;
      }
    </style>
  </defs>
  <g>
    <path class="cls-1" d="m54.62,160.37c-7.39,0-14.01-3.82-17.7-10.22-3.69-6.4-3.69-14.04,0-20.44l51.38-89c3.69-6.4,10.31-10.22,17.7-10.22s14.01,3.82,17.7,10.22l51.38,89c3.7,6.4,3.7,14.04,0,20.44-3.69,6.4-10.31,10.22-17.7,10.22H54.62Z"/>
    <path d="m106,38.49c4.19,0,8.38,2.07,10.77,6.22l51.38,89c4.79,8.29-1.2,18.66-10.77,18.66H54.62c-9.57,0-15.56-10.37-10.77-18.66l51.38-89c2.39-4.15,6.58-6.22,10.77-6.22m0-16c-10.28,0-19.49,5.32-24.63,14.22L29.99,125.71c-5.14,8.9-5.14,19.53,0,28.44,5.14,8.9,14.35,14.22,24.63,14.22h102.77c10.28,0,19.49-5.32,24.63-14.22,5.14-8.9,5.14-19.53,0-28.44l-51.38-89c-5.14-8.9-14.35-14.22-24.63-14.22h0Z"/>
  </g>
  <text class="cls-2" transform="translate(68.9 125.28)"><tspan x="0" y="0">D4</tspan></text>
</svg>