<?xml version="1.0" encoding="UTF-8"?>
<svg id="Layer_1" data-name="Layer 1" xmlns="http://www.w3.org/2000/svg" viewBox="0 0 212 212">
  <defs>
    <style>
      .cls-1 {
        fill: #bfff00;
      }

      .cls-2 {
        font-family: Nunito-ExtraBold, Nunito;
        font-size: 54px;
        font-weight: 700;
      }
    </style>
  </defs>
  <g>
    <path class="cls-1" d="m106,188.81c-7.23,0-14.17-3.06-19.04-8.41l-52-57.05c-9.02-9.9-9.02-24.82,0-34.72l52-57.05c4.87-5.34,11.81-8.41,19.04-8.41s14.17,3.06,19.04,8.41l52,57.05c9.02,9.9,9.02,24.82,0,34.72l-52,57.05c-4.87,5.34-11.81,8.41-19.04,8.41Z"/>
    <path d="m106,31.19c4.8,0,9.61,1.93,13.13,5.8l52,57.05c6.18,6.78,6.18,17.16,0,23.94l-52,57.05c-3.52,3.86-8.33,5.8-13.13,5.8s-9.61-1.93-13.13-5.8l-52-57.05c-6.18-6.78-6.18-17.16,0-23.94l52-57.05c3.52-3.86,8.33-5.8,13.13-5.8m0-16c-9.47,0-18.57,4.02-24.95,11.02l-52,57.05c-5.68,6.23-8.81,14.31-8.81,22.75s3.13,16.51,8.81,22.75l52,57.05c6.38,7,15.48,11.02,24.95,11.02s18.57-4.02,24.95-11.02l52-57.05c5.68-6.23,8.81-14.31,8.81-22.75s-3.13-16.51-8.81-22.75l-52-57.05c-6.38-7-15.48-11.02-24.95-11.02h0Z"/>
  </g>
  <text class="cls-2" transform="translate(68.9 125.28)"><tspan x="0" y="0">D8</tspan></text>
</svg>