<?xml version="1.0" encoding="UTF-8"?>
<svg id="Layer_1" data-name="Layer 1" xmlns="http://www.w3.org/2000/svg" viewBox="0 0 212 212">
  <defs>
    <style>
      .cls-1 {
        font-family: Nunito-ExtraBold, Nunito;
        font-size: 54px;
        font-weight: 700;
      }

      .cls-2 {
        fill: #ff3c00;
      }
    </style>
  </defs>
  <g>
    <path class="cls-2" d="m106,192.93c-2.62,0-5.22-.41-7.72-1.22l-36.42-11.83c-5.05-1.64-9.36-4.78-12.48-9.07l-22.51-30.98c-3.12-4.29-4.77-9.37-4.77-14.67v-38.29c0-5.31,1.65-10.38,4.77-14.67l22.51-30.98c3.12-4.29,7.44-7.43,12.48-9.07l36.42-11.83c2.5-.81,5.09-1.22,7.71-1.22s5.22.41,7.72,1.22l36.42,11.83c5.05,1.64,9.36,4.78,12.48,9.07l22.51,30.98c3.12,4.29,4.77,9.37,4.77,14.67v38.29c0,5.31-1.65,10.38-4.77,14.67l-22.51,30.98c-3.12,4.29-7.43,7.43-12.48,9.07l-36.42,11.83c-2.49.81-5.09,1.22-7.71,1.22Z"/>
    <path d="m106,27.07c1.77,0,3.54.28,5.24.83l36.42,11.83c3.41,1.11,6.38,3.26,8.48,6.16l22.51,30.98c2.11,2.9,3.24,6.39,3.24,9.97v38.29c0,3.58-1.13,7.07-3.24,9.97l-22.51,30.98c-2.11,2.9-5.08,5.06-8.48,6.16l-36.42,11.83c-1.7.55-3.47.83-5.24.83s-3.54-.28-5.24-.83l-36.42-11.83c-3.41-1.11-6.38-3.26-8.48-6.16l-22.51-30.98c-2.11-2.9-3.24-6.39-3.24-9.97v-38.29c0-3.58,1.13-7.07,3.24-9.97l22.51-30.98c2.11-2.9,5.08-5.06,8.48-6.16l36.42-11.83c1.7-.55,3.47-.83,5.24-.83m0-16c-3.46,0-6.89.54-10.19,1.61l-36.42,11.83c-6.66,2.17-12.36,6.31-16.48,11.98l-22.51,30.98c-4.12,5.67-6.3,12.37-6.3,19.38v38.29c0,7.01,2.18,13.71,6.3,19.38l22.51,30.98c4.12,5.67,9.82,9.81,16.48,11.98l36.42,11.83c3.3,1.07,6.72,1.61,10.19,1.61s6.89-.54,10.19-1.61l36.42-11.83c6.66-2.17,12.36-6.31,16.48-11.98l22.51-30.98c4.12-5.67,6.3-12.37,6.3-19.38v-38.29c0-7.01-2.18-13.71-6.3-19.38l-22.51-30.98c-4.12-5.67-9.82-9.81-16.48-11.98l-36.42-11.83c-3.29-1.07-6.72-1.61-10.19-1.61h0Z"/>
  </g>
  <text class="cls-1" transform="translate(52.7 125.28)"><tspan x="0" y="0">D12</tspan></text>
</svg>