<?xml version="1.0" encoding="UTF-8"?>
<svg id="Layer_1" data-name="Layer 1" xmlns="http://www.w3.org/2000/svg" viewBox="0 0 180 180">
  <defs>
    <style>
      .cls-1 {
        fill: #ff3c00;
      }
    </style>
  </defs>
  <path class="cls-1" d="m86.06,31.28l-27.38,8.9c-2.56.83-4.79,2.45-6.38,4.63l-16.92,23.29c-1.58,2.18-2.44,4.8-2.44,7.5v28.79c0,2.69.85,5.32,2.44,7.5l16.92,23.29c1.58,2.18,3.82,3.8,6.38,4.63l27.38,8.9c2.56.83,5.32.83,7.88,0l27.38-8.9c2.56-.83,4.79-2.45,6.38-4.63l16.92-23.29c1.58-2.18,2.44-4.8,2.44-7.5v-28.79c0-2.69-.85-5.32-2.44-7.5l-16.92-23.29c-1.58-2.18-3.82-3.8-6.38-4.63l-27.38-8.9c-2.56-.83-5.32-.83-7.88,0Z"/>
</svg>