<?xml version="1.0" encoding="UTF-8"?>
<svg id="Layer_1" data-name="Layer 1" xmlns="http://www.w3.org/2000/svg" viewBox="0 0 212 212">
  <defs>
    <style>
      .cls-1 {
        font-family: Nunito-ExtraBold, Nunito;
        font-size: 54px;
        font-weight: 700;
      }

      .cls-2 {
        fill: #00ffb2;
      }
    </style>
  </defs>
  <g>
    <path class="cls-2" d="m66.1,34.16h79.8c17.63,0,31.94,14.31,31.94,31.94v79.8c0,17.63-14.31,31.94-31.94,31.94h-79.8c-17.63,0-31.94-14.31-31.94-31.94v-79.8c0-17.63,14.31-31.94,31.94-31.94Z"/>
    <path d="m145.9,42.16c13.22,0,23.94,10.72,23.94,23.94v79.8c0,13.22-10.72,23.94-23.94,23.94h-79.8c-13.22,0-23.94-10.72-23.94-23.94v-79.8c0-13.22,10.72-23.94,23.94-23.94h79.8m0-16h-79.8c-22.02,0-39.94,17.92-39.94,39.94v79.8c0,22.02,17.92,39.94,39.94,39.94h79.8c22.02,0,39.94-17.92,39.94-39.94v-79.8c0-22.02-17.92-39.94-39.94-39.94h0Z"/>
  </g>
  <text class="cls-1" transform="translate(68.9 125.28)"><tspan x="0" y="0">D6</tspan></text>
</svg>