<?xml version="1.0" encoding="UTF-8"?>
<svg id="Layer_1" data-name="Layer 1" xmlns="http://www.w3.org/2000/svg" viewBox="0 0 128 128">
  <path d="m98.91,0H29.09C13.05,0,0,13.05,0,29.09v69.82c0,16.04,13.05,29.09,29.09,29.09h69.82c16.04,0,29.09-13.05,29.09-29.09V29.09c0-16.04-13.05-29.09-29.09-29.09ZM19.27,98.91c0-5.42,4.4-9.82,9.82-9.82s9.82,4.4,9.82,9.82-4.4,9.82-9.82,9.82-9.82-4.4-9.82-9.82ZM38.91,29.09c0,5.42-4.4,9.82-9.82,9.82s-9.82-4.4-9.82-9.82,4.4-9.82,9.82-9.82,9.82,4.4,9.82,9.82Zm0,34.91c0,5.42-4.4,9.82-9.82,9.82s-9.82-4.4-9.82-9.82,4.4-9.82,9.82-9.82,9.82,4.4,9.82,9.82Zm50.18,34.91c0-5.42,4.4-9.82,9.82-9.82s9.82,4.4,9.82,9.82-4.4,9.82-9.82,9.82-9.82-4.4-9.82-9.82Zm0-34.91c0-5.42,4.4-9.82,9.82-9.82s9.82,4.4,9.82,9.82-4.4,9.82-9.82,9.82-9.82-4.4-9.82-9.82Zm9.82-25.09c-5.42,0-9.82-4.4-9.82-9.82s4.4-9.82,9.82-9.82,9.82,4.4,9.82,9.82-4.4,9.82-9.82,9.82Z"/>
</svg>